<svg width="90" height="70" viewBox="0 0 90 70" fill="none" xmlns="http://www.w3.org/2000/svg">
<path d="M14.3407 12.3727C17.302 9.40116 20.8176 7.04404 24.6868 5.43587C28.556 3.82771 32.703 3 36.891 3C41.079 3 45.2259 3.82771 49.0951 5.43587C52.9643 7.04404 56.48 9.40116 59.4413 12.3727C59.6882 12.6204 59.884 12.9144 60.0176 13.2381C60.1512 13.5617 60.2199 13.9086 60.2199 14.2589C60.2199 14.6092 60.1512 14.956 60.0176 15.2797C59.884 15.6033 59.6882 15.8974 59.4413 16.1451C59.1945 16.3928 58.9014 16.5893 58.5789 16.7233C58.2563 16.8574 57.9106 16.9264 57.5615 16.9264C57.2124 16.9264 56.8667 16.8574 56.5442 16.7233C56.2217 16.5893 55.9286 16.3928 55.6817 16.1451C50.6979 11.1448 43.9388 8.33571 36.891 8.33571C29.8432 8.33571 23.084 11.1448 18.1002 16.1451C13.117 21.1459 10.3175 27.9282 10.3175 35C10.3175 42.0719 13.117 48.8542 18.1002 53.855C23.084 58.8553 29.8432 61.6644 36.891 61.6644C43.9388 61.6644 50.6979 58.8553 55.6817 53.855L76.308 33.1618H64.6253C63.9205 33.1618 63.2445 32.8809 62.7462 32.3808C62.2478 31.8807 61.9678 31.2024 61.9678 30.4952C61.9678 29.7879 62.2478 29.1097 62.7462 28.6096C63.2445 28.1095 63.9205 27.8285 64.6253 27.8285H81.4566C82.3964 27.8285 83.2976 28.2031 83.9622 28.8699C84.6267 29.5367 85 30.4411 85 31.3841V48.2728C85 48.9801 84.72 49.6583 84.2216 50.1584C83.7232 50.6585 83.0473 50.9395 82.3424 50.9395C81.6376 50.9395 80.9616 50.6585 80.4633 50.1584C79.9649 49.6583 79.6849 48.9801 79.6849 48.2728V37.3111L59.4413 57.6274C53.4606 63.6286 45.349 67 36.891 67C28.433 67 20.3214 63.6286 14.3407 57.6274C8.35993 51.6263 5 43.487 5 35C5 26.5131 8.35993 18.3738 14.3407 12.3727Z" fill="#171717"/>
<path d="M40.0402 27.6228C39.5404 27.6228 39.0611 27.8237 38.7077 28.1813C38.3543 28.5389 38.1558 29.0238 38.1558 29.5295C38.1558 30.0352 38.3543 30.5202 38.7077 30.8778C39.0611 31.2354 39.5404 31.4363 40.0402 31.4363H47.5779C48.0776 31.4363 48.557 31.2354 48.9104 30.8778C49.2638 30.5202 49.4623 30.0352 49.4623 29.5295C49.4623 29.0238 49.2638 28.5389 48.9104 28.1813C48.557 27.8237 48.0776 27.6228 47.5779 27.6228H40.0402ZM40.0402 44.7833C39.5404 44.7833 39.0611 44.9842 38.7077 45.3418C38.3543 45.6994 38.1558 46.1844 38.1558 46.6901C38.1558 47.1958 38.3543 47.6808 38.7077 48.0383C39.0611 48.3959 39.5404 48.5968 40.0402 48.5968H47.5779C48.0776 48.5968 48.557 48.3959 48.9104 48.0383C49.2638 47.6808 49.4623 47.1958 49.4623 46.6901C49.4623 46.1844 49.2638 45.6994 48.9104 45.3418C48.557 44.9842 48.0776 44.7833 47.5779 44.7833H40.0402Z" fill="#171717" fill-opacity="0.6"/>
<path d="M40.0402 21.9031C39.5404 21.9031 39.0611 22.104 38.7077 22.4615C38.3543 22.8191 38.1558 23.3041 38.1558 23.8098C38.1558 24.3155 38.3543 24.8005 38.7077 25.1581C39.0611 25.5156 39.5404 25.7165 40.0402 25.7165H55.1156C55.6153 25.7165 56.0946 25.5156 56.448 25.1581C56.8014 24.8005 57 24.3155 57 23.8098C57 23.3041 56.8014 22.8191 56.448 22.4615C56.0946 22.104 55.6153 21.9031 55.1156 21.9031H40.0402ZM40.0402 39.0636C39.5404 39.0636 39.0611 39.2645 38.7077 39.6221C38.3543 39.9797 38.1558 40.4647 38.1558 40.9703C38.1558 41.476 38.3543 41.961 38.7077 42.3186C39.0611 42.6762 39.5404 42.8771 40.0402 42.8771H55.1156C55.6153 42.8771 56.0946 42.6762 56.448 42.3186C56.8014 41.961 57 41.476 57 40.9703C57 40.4647 56.8014 39.9797 56.448 39.6221C56.0946 39.2645 55.6153 39.0636 55.1156 39.0636H40.0402Z" fill="#171717"/>
<path d="M22.8844 20C22.3846 20 21.9053 20.2009 21.5519 20.5585C21.1985 20.916 21 21.401 21 21.9067V31.4404C21 31.9461 21.1985 32.431 21.5519 32.7886C21.9053 33.1462 22.3846 33.3471 22.8844 33.3471H32.3065C32.8063 33.3471 33.2856 33.1462 33.639 32.7886C33.9924 32.431 34.1909 31.9461 34.1909 31.4404V21.9067C34.1909 21.401 33.9924 20.916 33.639 20.5585C33.2856 20.2009 32.8063 20 32.3065 20H22.8844ZM22.8844 37.1529C22.3846 37.1529 21.9053 37.3538 21.5519 37.7114C21.1985 38.069 21 38.5539 21 39.0596V48.5933C21 49.099 21.1985 49.584 21.5519 49.9415C21.9053 50.2991 22.3846 50.5 22.8844 50.5H32.3065C32.8063 50.5 33.2856 50.2991 33.639 49.9415C33.9924 49.584 34.1909 49.099 34.1909 48.5933V39.0596C34.1909 38.5539 33.9924 38.069 33.639 37.7114C33.2856 37.3538 32.8063 37.1529 32.3065 37.1529H22.8844Z" fill="#171717"/>
</svg>
